<svg width="38" height="28" viewBox="0 0 38 28" fill="none" xmlns="http://www.w3.org/2000/svg">
<path d="M32.0742 22.1998H33.5342V22.7898C33.7542 22.5431 34.0142 22.3598 34.3142 22.2398C34.6209 22.1131 34.9409 22.0498 35.2742 22.0498C35.9276 22.0498 36.4142 22.2265 36.7342 22.5798C37.0609 22.9265 37.2242 23.3965 37.2242 23.9898V26.9998H35.7142V24.1598C35.7142 23.5398 35.4276 23.2298 34.8542 23.2298C34.6009 23.2298 34.3642 23.2931 34.1442 23.4198C33.9242 23.5398 33.7376 23.7198 33.5842 23.9598V26.9998H32.0742V22.1998Z" fill="white" fill-opacity="0.7"/>
<path d="M28.0154 27.1498C27.4287 27.1498 26.9487 27.0031 26.5754 26.7098C26.2087 26.4098 26.0254 26.0031 26.0254 25.4898C26.0254 24.9565 26.2021 24.5431 26.5554 24.2498C26.9087 23.9498 27.4087 23.7998 28.0554 23.7998C28.3421 23.7998 28.6154 23.8298 28.8754 23.8898C29.1354 23.9498 29.3654 24.0331 29.5654 24.1398V24.0198C29.5654 23.7198 29.4587 23.4998 29.2454 23.3598C29.0321 23.2198 28.7054 23.1498 28.2654 23.1498C27.6787 23.1498 27.1387 23.2598 26.6454 23.4798V22.3798C26.8587 22.2865 27.1354 22.2098 27.4754 22.1498C27.8154 22.0831 28.1554 22.0498 28.4954 22.0498C29.3621 22.0498 30.0087 22.2298 30.4354 22.5898C30.8621 22.9431 31.0754 23.4398 31.0754 24.0798V26.9998H29.6554V26.5598C29.2487 26.9531 28.7021 27.1498 28.0154 27.1498ZM28.4254 26.1498C28.6721 26.1498 28.8954 26.1031 29.0954 26.0098C29.2954 25.9165 29.4521 25.7865 29.5654 25.6198V25.1398C29.2254 24.9131 28.8521 24.7998 28.4454 24.7998C28.1654 24.7998 27.9487 24.8598 27.7954 24.9798C27.6487 25.0931 27.5754 25.2631 27.5754 25.4898C27.5754 25.7031 27.6487 25.8665 27.7954 25.9798C27.9421 26.0931 28.1521 26.1498 28.4254 26.1498Z" fill="white" fill-opacity="0.7"/>
<path d="M20.0723 19.6099H21.5823V22.7499C21.8089 22.5165 22.0656 22.3432 22.3523 22.2299C22.6389 22.1099 22.9456 22.0499 23.2723 22.0499C23.9256 22.0499 24.4123 22.2265 24.7323 22.5799C25.0589 22.9265 25.2223 23.3965 25.2223 23.9899V26.9999H23.7123V24.1599C23.7123 23.5399 23.4256 23.2299 22.8523 23.2299C22.5989 23.2299 22.3623 23.2932 22.1423 23.4199C21.9223 23.5399 21.7356 23.7199 21.5823 23.9599V26.9999H20.0723V19.6099Z" fill="white" fill-opacity="0.7"/>
<path d="M15.7627 27.1499C15.2693 27.1499 14.8293 27.0465 14.4427 26.8399C14.0627 26.6265 13.7627 26.3299 13.5427 25.9499C13.3293 25.5632 13.2227 25.1165 13.2227 24.6099C13.2227 24.1099 13.3293 23.6665 13.5427 23.2799C13.756 22.8932 14.056 22.5932 14.4427 22.3799C14.8293 22.1599 15.2693 22.0499 15.7627 22.0499C16.1227 22.0499 16.4527 22.0999 16.7527 22.1999C17.0527 22.2999 17.306 22.4432 17.5127 22.6299V19.6099H19.0227V26.9999H17.5627V26.4799C17.316 26.7132 17.046 26.8832 16.7527 26.9899C16.466 27.0965 16.136 27.1499 15.7627 27.1499ZM16.1527 25.9799C16.466 25.9799 16.7427 25.8965 16.9827 25.7299C17.2293 25.5632 17.406 25.3399 17.5127 25.0599V24.1499C17.4193 23.8765 17.246 23.6565 16.9927 23.4899C16.746 23.3165 16.466 23.2299 16.1527 23.2299C15.746 23.2299 15.4127 23.3565 15.1527 23.6099C14.8993 23.8632 14.7727 24.1965 14.7727 24.6099C14.7727 25.0232 14.8993 25.3565 15.1527 25.6099C15.4127 25.8565 15.746 25.9799 16.1527 25.9799Z" fill="white" fill-opacity="0.7"/>
<path d="M9.36305 27.1498C8.77638 27.1498 8.29638 27.0031 7.92305 26.7098C7.55638 26.4098 7.37305 26.0031 7.37305 25.4898C7.37305 24.9565 7.54971 24.5431 7.90305 24.2498C8.25638 23.9498 8.75638 23.7998 9.40305 23.7998C9.68971 23.7998 9.96305 23.8298 10.223 23.8898C10.483 23.9498 10.713 24.0331 10.913 24.1398V24.0198C10.913 23.7198 10.8064 23.4998 10.593 23.3598C10.3797 23.2198 10.053 23.1498 9.61305 23.1498C9.02638 23.1498 8.48638 23.2598 7.99305 23.4798V22.3798C8.20638 22.2865 8.48305 22.2098 8.82305 22.1498C9.16305 22.0831 9.50305 22.0498 9.84305 22.0498C10.7097 22.0498 11.3564 22.2298 11.783 22.5898C12.2097 22.9431 12.423 23.4398 12.423 24.0798V26.9998H11.003V26.5598C10.5964 26.9531 10.0497 27.1498 9.36305 27.1498ZM9.77305 26.1498C10.0197 26.1498 10.243 26.1031 10.443 26.0098C10.643 25.9165 10.7997 25.7865 10.913 25.6198V25.1398C10.573 24.9131 10.1997 24.7998 9.79305 24.7998C9.51305 24.7998 9.29638 24.8598 9.14305 24.9798C8.99638 25.0931 8.92305 25.2631 8.92305 25.4898C8.92305 25.7031 8.99638 25.8665 9.14305 25.9798C9.28971 26.0931 9.49971 26.1498 9.77305 26.1498Z" fill="white" fill-opacity="0.7"/>
<path d="M2.8 20.0098H4.29L7.08 26.9998H5.53L4.93 25.4798H2.16L1.56 26.9998H0L2.8 20.0098ZM4.53 24.2698L3.54 21.6098L2.55 24.2698H4.53Z" fill="white" fill-opacity="0.7"/>
<path d="M8.69336 11.0486L12.0704 16.226L22.6866 1H15.6904L8.69336 11.0486Z" fill="white" fill-opacity="0.7"/>
<path d="M19.1104 6.13259L25.989 16.226L29.5257 11.1793L22.6891 1L19.1104 6.13259Z" fill="white" fill-opacity="0.7"/>
<path d="M15.6104 16.2282H22.6066L19.1081 11.0508L15.6104 16.2282Z" fill="white" fill-opacity="0.7"/>
</svg>
